<svg width="96" height="83" viewBox="0 0 96 83" fill="none" xmlns="http://www.w3.org/2000/svg">
<path d="M86.2074 0H52.4261C47.4141 0 43.4048 4.00929 43.4048 9.02135V30.072C43.4048 35.0841 47.4141 39.0933 52.4261 39.0933H86.2074C91.2195 39.0933 95.2288 35.0841 95.2288 30.072V9.02135C95.2295 4.10989 91.22 0 86.208 0H86.2074ZM76.9847 21.2511L65.3565 29.0699C64.0532 29.972 62.2492 28.97 62.2492 27.3659L62.2499 11.7285C62.2499 10.1245 64.0539 9.1224 65.3572 10.0245L76.9854 17.8433C78.1881 18.6453 78.1881 20.4494 76.9847 21.2513V21.2511Z" fill="#307EA2"/>
<path d="M34.8839 18.8453C34.8839 26.0978 29.0048 31.9767 21.7525 31.9767C14.5002 31.9767 8.62109 26.0976 8.62109 18.8453C8.62109 11.5931 14.5002 5.7132 21.7525 5.7132C29.0048 5.7132 34.8839 11.5931 34.8839 18.8453Z" fill="#307EA2"/>
<path d="M40.1967 49.8199C41.2994 49.8199 42.5021 49.6192 43.5047 49.3185C43.204 43.0031 39.0939 37.7911 33.3805 35.7856C30.0725 38.091 26.0631 39.3943 21.7523 39.3943C17.4423 39.3943 13.4323 38.0909 10.1242 35.7856C4.21013 37.7909 0 43.4043 0 50.0204V57.5385C0 59.0418 1.20268 60.2451 2.70669 60.2451H20.8503V60.0445C20.8503 54.4311 25.4618 49.8197 31.0751 49.8197L40.1967 49.8199Z" fill="#307EA2"/>
<path d="M61.4478 58.3404V48.8176C61.4478 47.1136 59.5431 46.2115 58.2398 47.1136L50.3211 52.7269C47.4144 54.8324 43.9056 55.935 40.2969 55.935H31.2756C28.9702 55.935 27.1655 57.739 27.1655 60.0451V67.3625C27.1655 69.6679 28.9695 71.4726 31.2756 71.4726H33.381L35.185 81.8973C35.285 82.5993 35.887 83 36.4883 83H40.5977C41.4997 83 42.101 82.198 41.901 81.396L40.197 71.4719C43.8057 71.4719 47.3145 72.5746 50.2212 74.68L58.1399 80.2933C59.5432 81.296 61.3479 80.2933 61.3479 78.5893V69.0666C64.1547 68.8659 66.36 66.5606 66.36 63.7538C66.46 60.8464 64.2546 58.5411 61.448 58.3404L61.4478 58.3404Z" fill="#307EA2"/>
<path d="M79.8921 61.2474H72.7746C71.4713 61.2474 70.3687 62.3501 70.3687 63.6533C70.3687 64.9566 71.4713 66.0593 72.7746 66.0593H79.8921C81.1955 66.0593 82.2981 64.9566 82.2981 63.6533C82.2981 62.3501 81.1954 61.2474 79.8921 61.2474Z" fill="#307EA2"/>
<path d="M69.3668 57.8392C69.9682 57.8392 70.5695 57.6385 71.0709 57.1371L76.0829 52.1251C76.9849 51.2231 76.9849 49.6191 76.0829 48.7171C75.1809 47.8151 73.5769 47.8151 72.6749 48.7171L67.6628 53.7291C66.7608 54.6311 66.7608 56.2352 67.6628 57.1371C68.0635 57.6385 68.6655 57.8392 69.3668 57.8392Z" fill="#307EA2"/>
<path d="M71.0713 70.1688C70.1693 69.2668 68.5653 69.2668 67.6633 70.1688C66.7613 71.0708 66.7613 72.6748 67.6633 73.5768L72.6754 78.5889C73.1767 79.0902 73.7781 79.2909 74.3794 79.2909C74.9807 79.2909 75.5821 79.0902 76.0834 78.5889C76.9854 77.6869 76.9854 76.0829 76.0834 75.1809L71.0713 70.1688Z" fill="#307EA2"/>
</svg>
