<svg width="59" height="74" viewBox="0 0 59 74" fill="none" xmlns="http://www.w3.org/2000/svg">
<path fill-rule="evenodd" clip-rule="evenodd" d="M21.9417 35.4557C21.7324 35.3634 21.5053 35.3195 21.2782 35.3262C10.8761 35.6275 2.12055 43.656 0.539494 54.4538C0.537875 54.4639 0.536257 54.4735 0.534639 54.4853C-0.130426 59.6837 -0.0953666 65.0507 0.209384 70.0696V70.0747C0.349621 72.2809 2.10527 73.9966 4.22402 73.9966C13.0922 74 45.6394 74 54.5085 74C56.6284 74 58.3856 72.2826 58.5259 70.0747C58.5259 70.0731 58.5259 70.0697 58.5275 70.068C58.8274 65.043 58.8609 59.666 58.1154 54.4707V54.4656C56.5317 43.6412 47.7101 35.6091 37.2621 35.4029C37.0447 35.3996 36.8273 35.4412 36.6256 35.5274C34.3849 36.4773 31.9329 37.0005 29.3654 37.0005C26.7359 37.0005 24.2278 36.452 21.9403 35.4565L21.9417 35.4557Z" fill="#307EA2"/>
<path fill-rule="evenodd" clip-rule="evenodd" d="M45.4763 16.8183C45.4763 26.1066 38.2637 33.6365 29.3675 33.6365C20.4703 33.6365 13.2573 26.1069 13.2573 16.8183C13.2573 7.52965 20.47 0 29.3675 0C38.2642 0 45.4763 7.52965 45.4763 16.8183Z" fill="#307EA2"/>
</svg>
